<svg xmlns="http://www.w3.org/2000/svg" viewBox="0 0 215.3 214.7" style="enable-background:new 0 0 215.3 214.7" xml:space="preserve"><style>.st11{fill:none;stroke:#0561fc;stroke-width:6.8376}</style><g id="Layer_4"><path style="fill:#9ac7f7" d="m188 112.2-17.1 13.6v-13.6h-10.3V84.8h54.7v27.4z"/><path style="fill:#c5e1f9" d="M106 67.6h109.3V19.7h-78.6L119.4 6.3v13.4H106z"/><path class="st11" d="M164.4 154.3c20.1 30.2-12.1 46.9-16.8 48.9-12.4 5.2-26 8.1-40.2 8.1C50 211.3 3.5 164.8 3.5 107.4c-.1-57.5 46.4-104 103.8-104"/><path class="st11" d="M143 124.7c-.2.1-.3.3-.4.4-2.2 3.2-8.2 10.4-10.4 13.6-2 3-6.9 3.6-10.7.9-4.2-2.9-16.8-14.2-24.7-21.6-7.4-7.8-18.8-20.6-21.7-24.8-2.6-3.8-2.1-8.7.9-10.7 3.2-2.2 10.4-8.2 13.6-10.4.1-.1.3-.2.4-.4-8-9.8-15.3-19.7-21.8-29.6C63.9 44.9 56 52 52.3 55.7c-1.8 1.8-3.5 3.7-5 5.6-2 20.2 6.9 46.8 32.1 71.9 25.5 26.7 53.2 36.2 74 34.2 1.9-1.6 3.8-3.3 5.6-5.1 3.7-3.8 10.8-11.7 13.6-15.9-9.9-6.4-19.8-13.7-29.6-21.7zM126.6 50.6h68.2M126.6 36.9h68.2M171 98.5h6.8M184.7 98.5h6.8M198.4 98.5h6.8"/></g></svg>